<svg xmlns="http://www.w3.org/2000/svg" data-name="Layer 2" viewBox="0 0 1709 388">
<style>
g { fill red }
</style>
<g>
  <path d="M1692 111h-21c-10 0-17-8-17-17V72c0-9-8-17-17-17h-133c-9 0-17 8-17 17v133c0 9 8 17 17 17h22c9 0 17 7 17 17v21c0 10 7 17 17 17h77c9 0 17-7 17-17v-21c0-10 7-17 17-17h21c10 0 17-8 17-17v-77c0-10-7-17-17-17Zm-38 94c0 9-8 17-17 17h-77c-10 0-17-8-17-17v-77c0-10 7-17 17-17h77c9 0 17 7 17 17v77Zm-111 89v77c0 10-8 17-17 17h-22c-9 0-17-7-17-17v-77c0-9 8-17 17-17h22c9 0 17 8 17 17Z"/>
  <rect width="55.1" height="55.1" x="937" y="277" rx="27.5" ry="27.5"/>
  <path d="M863 17v22c0 9-7 16-16 16h-22c-10 0-17-7-17-16V17c0-9 7-17 17-17h22c9 0 16 8 16 17Zm56 277v22c0 9-8 17-17 17h-22c-9 0-17-8-17-17v-22c0-9-7-17-16-17h-22c-10 0-17-7-17-17V128c0-10-8-17-17-17h-77c-9 0-17-8-17-17V72c0-9 8-17 17-17h77c9 0 17 8 17 17v22c0 9 7 17 17 17h22c9 0 16 7 16 17v132c0 10 8 17 17 17h22c9 0 17 8 17 17Z"/>
  <rect width="110.9" height="55.4" x="697" y="277" rx="16.8" ry="16.8"/>
  <path d="M1418 17v22c0 9-7 16-16 16h-22c-10 0-17-7-17-16V17c0-9 7-17 17-17h22c9 0 16 8 16 17Zm56 277v22c0 9-8 17-17 17h-22c-9 0-17-8-17-17v-22c0-9-7-17-16-17h-22c-10 0-17-7-17-17V128c0-10-8-17-17-17h-77c-9 0-17-8-17-17V72c0-9 8-17 17-17h77c9 0 17 8 17 17v22c0 9 7 17 17 17h22c9 0 16 7 16 17v132c0 10 8 17 17 17h22c9 0 17 8 17 17Z"/>
  <rect width="110.9" height="55.4" x="1252" y="277" rx="16.8" ry="16.8"/>
  <path d="M694 128v22c0 9-8 16-17 16h-22c-9 0-17-7-17-16v-22c0-10-7-17-17-17h-77c-9 0-17 7-17 17v188c0 9-7 17-16 17h-22c-10 0-17-8-17-17V128c0-10 7-17 17-17h22c9 0 16-8 16-17V72c0-9 8-17 17-17h77c10 0 17 8 17 17v22c0 9 8 17 17 17h22c9 0 17 7 17 17Zm-256-17h-22c-9 0-17-8-17-17V72c0-9-7-17-17-17h-77c-9 0-17 8-17 17v22c0 9-7 17-16 17h-22c-10 0-17 7-17 17v132c0 10 7 17 17 17h22c9 0 16 8 16 17v22c0 9 8 17 17 17h77c10 0 17-8 17-17v-22c0-9 8-17 17-17h22c9 0 17-7 17-17V128c0-10-8-17-17-17Zm-39 149c0 10-7 17-17 17h-77c-9 0-17-7-17-17V128c0-10 8-17 17-17h77c10 0 17 7 17 17v132ZM111 17v22c0 9-8 16-17 16H72c-9 0-17 8-17 17v22c0 9-7 17-16 17H17c-9 0-17-8-17-17V72c0-9 8-17 17-17h22c9 0 16-7 16-16V17c0-9 8-17 17-17h22c9 0 17 8 17 17Zm0 111v132c0 10 7 17 17 17h77c9 0 17 8 17 17v22c0 9-8 17-17 17h-77c-10 0-17-8-17-17v-22c0-9-8-17-17-17H72c-9 0-17-7-17-17V128c0-10 8-17 17-17h22c9 0 17-8 17-17V72c0-9 7-17 17-17h77c9 0 17 8 17 17v22c0 9-8 17-17 17h-77c-10 0-17 7-17 17Zm955 111v38h150c9 0 16 8 16 17v22c0 9-7 17-16 17h-188c-10 0-17-8-17-17v-77c0-10 7-17 17-17h21c10 0 17-8 17-17v-22c0-9 8-17 17-17h77c10 0 17-7 17-16v-39h-149c-10 0-17-8-17-17V72c0-9 7-17 17-17h188c9 0 16 8 16 17v78c0 9-7 16-16 16h-22c-9 0-17 8-17 17v22c0 9-7 17-17 17h-77c-9 0-17 7-17 17Z"/>
</g>
</svg>
